<svg width="692" height="128" viewBox="0 0 692 128" fill="none" xmlns="http://www.w3.org/2000/svg">
<path d="M355.592 23.2005C363.663 12.7273 377.139 7.49072 396.021 7.49072C414.903 7.49072 428.38 12.7273 436.45 23.2005C444.521 33.522 448.556 48.0934 448.556 66.9148C448.556 106.834 431.045 126.794 396.021 126.794C360.998 126.794 343.486 106.834 343.486 66.9148C343.486 48.0934 347.522 33.522 355.592 23.2005ZM379.119 92.6425C382.317 98.1068 387.951 100.839 396.021 100.839C404.092 100.839 409.65 98.1068 412.695 92.6425C415.893 87.1782 417.492 78.6023 417.492 66.9148C417.492 55.2273 415.893 46.7273 412.695 41.4148C409.65 36.1023 404.092 33.4461 396.021 33.4461C387.951 33.4461 382.317 36.1023 379.119 41.4148C376.073 46.7273 374.55 55.2273 374.55 66.9148C374.55 78.6023 376.073 87.1782 379.119 92.6425Z" fill="white"/>
<path d="M480.21 24.4061C488.281 13.9329 501.757 8.69629 520.639 8.69629C539.522 8.69629 552.998 13.9329 561.069 24.4061C569.139 34.7275 573.174 49.2989 573.174 68.1204C573.174 108.04 555.663 128 520.639 128C485.616 128 468.104 108.04 468.104 68.1204C468.104 49.2989 472.14 34.7275 480.21 24.4061ZM503.737 93.848C506.935 99.3123 512.569 102.044 520.639 102.044C528.71 102.044 534.268 99.3123 537.314 93.848C540.511 88.3838 542.11 79.8079 542.11 68.1204C542.11 56.4329 540.511 47.9329 537.314 42.6204C534.268 37.3079 528.71 34.6516 520.639 34.6516C512.569 34.6516 506.935 37.3079 503.737 42.6204C500.691 47.9329 499.169 56.4329 499.169 68.1204C499.169 79.8079 500.691 88.3838 503.737 93.848Z" fill="white"/>
<path d="M623.281 125.588H592.727V12.6114H623.053V18.938C633.39 12.9126 642.891 9.8999 651.556 9.8999C666.757 9.8999 677.246 14.3437 683.023 23.2312C688.8 32.1187 691.688 45.8265 691.688 64.3547V125.588H661.133V65.2585C661.133 55.6179 659.993 48.538 657.713 44.0189C655.432 39.3492 650.872 37.0143 644.031 37.0143C637.799 37.0143 631.794 38.0688 626.018 40.1777L623.281 41.0815V125.588Z" fill="white"/>
<path d="M189.706 125.588H159.01V12.6114H189.477V18.938C200.015 12.9126 209.025 9.8999 216.508 9.8999C228.878 9.8999 238.423 13.4398 245.143 20.5197C259.193 13.4398 272.021 9.8999 283.628 9.8999C298.747 9.8999 309.208 14.2683 315.011 23.0052C320.967 31.5915 323.945 45.3746 323.945 64.3547V125.588H293.249V65.2585C293.249 55.6179 292.18 48.538 290.042 44.0189C287.904 39.3492 283.628 37.0143 277.213 37.0143C272.326 37.0143 266.37 38.0688 259.345 40.1777L255.909 41.3075C256.52 52.6051 256.826 61.1914 256.826 67.0662V125.588H226.129V67.5181C226.129 56.371 225.137 48.538 223.151 44.0189C221.166 39.3492 216.813 37.0143 210.094 37.0143C204.138 37.0143 198.258 38.0688 192.455 40.1777L189.706 41.0815V125.588Z" fill="white"/>
<path fill-rule="evenodd" clip-rule="evenodd" d="M46.1256 0C42.2612 0 39.1285 3.13273 39.1285 6.99716C39.1285 10.8616 42.2612 13.9943 46.1256 13.9943H82.8881C86.7525 13.9943 89.8853 10.8616 89.8853 6.99716C89.8853 3.13273 86.7525 0 82.8881 0H46.1256ZM21.5447 18.8747C17.6802 18.8747 14.5475 22.0074 14.5475 25.8718C14.5475 29.7363 17.6802 32.869 21.5447 32.869H54.3667C58.2311 32.869 61.3639 29.7363 61.3639 25.8718C61.3639 22.0074 58.2311 18.8747 54.3667 18.8747H21.5447ZM64.2724 25.8718C64.2724 22.0074 67.4052 18.8747 71.2696 18.8747H106.343C110.208 18.8747 113.34 22.0074 113.34 25.8718C113.34 29.7363 110.208 32.869 106.343 32.869H71.2696C67.4052 32.869 64.2724 29.7363 64.2724 25.8718ZM10.3338 37.7473C6.49482 37.7473 3.38269 40.8595 3.38269 44.6985C3.38269 48.5375 6.49483 51.6496 10.3338 51.6496H70.0806C73.9196 51.6496 77.0317 48.5375 77.0317 44.6985C77.0317 40.8595 73.9195 37.7473 70.0805 37.7473H10.3338ZM79.7525 44.6985C79.7525 40.8595 82.8646 37.7473 86.7036 37.7473H116.897C120.736 37.7473 123.848 40.8595 123.848 44.6985C123.848 48.5375 120.736 51.6496 116.897 51.6496H86.7036C82.8646 51.6496 79.7525 48.5375 79.7525 44.6985ZM67.7043 56.5303C63.8399 56.5303 60.7071 59.6631 60.7071 63.5275C60.7071 67.3919 63.8399 70.5247 67.7043 70.5247H121.261C125.125 70.5247 128.258 67.3919 128.258 63.5275C128.258 59.6631 125.125 56.5303 121.261 56.5303H67.7043ZM0.755859 63.5275C0.755859 59.6631 3.8886 56.5303 7.75302 56.5303H50.8015C54.6659 56.5303 57.7986 59.6631 57.7986 63.5275C57.7986 67.3919 54.6659 70.5247 50.8015 70.5247H7.75303C3.8886 70.5247 0.755859 67.3919 0.755859 63.5275ZM41.7007 88.0167C45.5651 88.0167 48.6979 84.8839 48.6979 81.0195C48.6979 77.1551 45.5651 74.0224 41.7007 74.0224H11.1304C7.26593 74.0224 4.1332 77.1551 4.1332 81.0195C4.1332 84.8839 7.26593 88.0167 11.1304 88.0167H41.7007ZM124.786 81.0195C124.786 84.8839 121.653 88.0167 117.789 88.0167H58.4159C54.5514 88.0167 51.4187 84.8839 51.4187 81.0195C51.4187 77.1551 54.5514 74.0224 58.4159 74.0224H117.789C121.653 74.0224 124.786 77.1551 124.786 81.0195ZM61.591 106.798C65.4554 106.798 68.5882 103.665 68.5882 99.8005C68.5882 95.9361 65.4554 92.8033 61.591 92.8033H21.8262C17.9618 92.8033 14.8291 95.9361 14.8291 99.8005C14.8291 103.665 17.9618 106.798 21.8263 106.798H61.591ZM113.059 99.8005C113.059 103.665 109.926 106.798 106.062 106.798H78.5875C74.7231 106.798 71.5903 103.665 71.5903 99.8005C71.5903 95.9361 74.7231 92.8033 78.5875 92.8033H106.062C109.926 92.8033 113.059 95.9361 113.059 99.8005ZM46.1256 125.672C42.2612 125.672 39.1285 122.54 39.1285 118.675C39.1285 114.811 42.2612 111.678 46.1256 111.678H82.8881C86.7525 111.678 89.8853 114.811 89.8853 118.675C89.8853 122.54 86.7525 125.672 82.8881 125.672H46.1256Z" fill="white"/>
<mask id="mask0_365_28516" style="mask-type:alpha" maskUnits="userSpaceOnUse" x="0" y="0" width="129" height="126">
<path fill-rule="evenodd" clip-rule="evenodd" d="M46.1256 0C42.2612 0 39.1285 3.13273 39.1285 6.99716C39.1285 10.8616 42.2612 13.9943 46.1256 13.9943H82.8881C86.7525 13.9943 89.8853 10.8616 89.8853 6.99716C89.8853 3.13273 86.7525 0 82.8881 0H46.1256ZM21.5447 18.8747C17.6802 18.8747 14.5475 22.0074 14.5475 25.8718C14.5475 29.7363 17.6802 32.869 21.5447 32.869H54.3667C58.2311 32.869 61.3639 29.7363 61.3639 25.8718C61.3639 22.0074 58.2311 18.8747 54.3667 18.8747H21.5447ZM64.2724 25.8718C64.2724 22.0074 67.4052 18.8747 71.2696 18.8747H106.343C110.208 18.8747 113.34 22.0074 113.34 25.8718C113.34 29.7363 110.208 32.869 106.343 32.869H71.2696C67.4052 32.869 64.2724 29.7363 64.2724 25.8718ZM10.3338 37.7473C6.49482 37.7473 3.38269 40.8595 3.38269 44.6985C3.38269 48.5375 6.49483 51.6496 10.3338 51.6496H70.0806C73.9196 51.6496 77.0317 48.5375 77.0317 44.6985C77.0317 40.8595 73.9195 37.7473 70.0805 37.7473H10.3338ZM79.7525 44.6985C79.7525 40.8595 82.8646 37.7473 86.7036 37.7473H116.897C120.736 37.7473 123.848 40.8595 123.848 44.6985C123.848 48.5375 120.736 51.6496 116.897 51.6496H86.7036C82.8646 51.6496 79.7525 48.5375 79.7525 44.6985ZM67.7043 56.5303C63.8399 56.5303 60.7071 59.6631 60.7071 63.5275C60.7071 67.3919 63.8399 70.5247 67.7043 70.5247H121.261C125.125 70.5247 128.258 67.3919 128.258 63.5275C128.258 59.6631 125.125 56.5303 121.261 56.5303H67.7043ZM0.755859 63.5275C0.755859 59.6631 3.8886 56.5303 7.75302 56.5303H50.8015C54.6659 56.5303 57.7986 59.6631 57.7986 63.5275C57.7986 67.3919 54.6659 70.5247 50.8015 70.5247H7.75303C3.8886 70.5247 0.755859 67.3919 0.755859 63.5275ZM41.7007 88.0167C45.5651 88.0167 48.6979 84.8839 48.6979 81.0195C48.6979 77.1551 45.5651 74.0224 41.7007 74.0224H11.1304C7.26593 74.0224 4.1332 77.1551 4.1332 81.0195C4.1332 84.8839 7.26593 88.0167 11.1304 88.0167H41.7007ZM124.786 81.0195C124.786 84.8839 121.653 88.0167 117.789 88.0167H58.4159C54.5514 88.0167 51.4187 84.8839 51.4187 81.0195C51.4187 77.1551 54.5514 74.0224 58.4159 74.0224H117.789C121.653 74.0224 124.786 77.1551 124.786 81.0195ZM61.591 106.798C65.4554 106.798 68.5882 103.665 68.5882 99.8005C68.5882 95.9361 65.4554 92.8033 61.591 92.8033H21.8262C17.9618 92.8033 14.8291 95.9361 14.8291 99.8005C14.8291 103.665 17.9618 106.798 21.8263 106.798H61.591ZM113.059 99.8005C113.059 103.665 109.926 106.798 106.062 106.798H78.5875C74.7231 106.798 71.5903 103.665 71.5903 99.8005C71.5903 95.9361 74.7231 92.8033 78.5875 92.8033H106.062C109.926 92.8033 113.059 95.9361 113.059 99.8005ZM46.1256 125.672C42.2612 125.672 39.1285 122.54 39.1285 118.675C39.1285 114.811 42.2612 111.678 46.1256 111.678H82.8881C86.7525 111.678 89.8853 114.811 89.8853 118.675C89.8853 122.54 86.7525 125.672 82.8881 125.672H46.1256Z" fill="#D24242"/>
</mask>
<g mask="url(#mask0_365_28516)">
</g>
</svg>
