<?xml version="1.0" encoding="utf-8"?>
    <svg xmlns="http://www.w3.org/2000/svg" xmlns:xlink="http://www.w3.org/1999/xlink">
        <defs>
            <svg viewBox="0 0 24 24" id="icon-send" xmlns="http://www.w3.org/2000/svg"><path d="M19.8135 0.186523C19.9936 0.36664 20.049 0.636768 19.9544 0.873274L12.544 19.3995C12.2549 20.1222 11.2692 20.2142 10.8513 19.5575L6.80342 13.1966L0.442456 9.1487C-0.214196 8.73083 -0.122154 7.74512 0.600519 7.45605L19.1267 0.0455622C19.3632 -0.0490401 19.6334 0.00640572 19.8135 0.186523ZM8.07611 12.8244L11.5922 18.3497L17.6198 3.28069L8.07611 12.8244ZM16.7193 2.38016L1.65027 8.40778L7.17559 11.9239L16.7193 2.38016Z" /></svg>
            <svg viewBox="0 0 24 24" id="add-file" xmlns="http://www.w3.org/2000/svg" ><path d="M12.5 10.125C12.8452 10.125 13.125 10.4048 13.125 10.75V12.625H15C15.3452 12.625 15.625 12.9048 15.625 13.25C15.625 13.5952 15.3452 13.875 15 13.875H13.125V15.75C13.125 16.0952 12.8452 16.375 12.5 16.375C12.1548 16.375 11.875 16.0952 11.875 15.75V13.875H10C9.65482 13.875 9.375 13.5952 9.375 13.25C9.375 12.9048 9.65482 12.625 10 12.625H11.875V10.75C11.875 10.4048 12.1548 10.125 12.5 10.125Z" /><path d="M20 7.625V19.5C20 20.8807 18.8807 22 17.5 22H7.5C6.11929 22 5 20.8807 5 19.5V4.5C5 3.11929 6.11929 2 7.5 2H14.375L20 7.625ZM16.25 7.625C15.2145 7.625 14.375 6.78553 14.375 5.75V3.25H7.5C6.80964 3.25 6.25 3.80964 6.25 4.5V19.5C6.25 20.1904 6.80964 20.75 7.5 20.75H17.5C18.1904 20.75 18.75 20.1904 18.75 19.5V7.625H16.25Z" /></svg>
         <svg viewBox="0 0 25 25" id="euro" xmlns="http://www.w3.org/2000/svg">
            <path d="M6.9292 15.0415H8.11592C8.55105 18.1574 10.9146 20.0103 14.4945 20.0103C15.2461 20.0103 15.8988 19.9457 16.4427 19.8167V18.0744C15.9186 18.2034 15.2758 18.2588 14.5044 18.2588C12.22 18.2588 10.7267 17.0604 10.3311 15.0415H14.9395V14.0275H10.2223C10.2223 13.9998 10.2223 13.9537 10.2223 13.9168V13.0226C10.2223 12.9028 10.2223 12.783 10.2322 12.6723H14.9395V11.6583H10.3806C10.8454 9.78694 12.3189 8.68072 14.5044 8.68072C15.2758 8.68072 15.9186 8.74525 16.4427 8.87431V7.13201C15.8988 7.00295 15.2461 6.9292 14.4945 6.9292C11.0036 6.9292 8.67961 8.68994 8.14558 11.6583H6.9292V12.6723H8.04669C8.0368 12.7737 8.0368 12.8844 8.0368 12.995V13.9445C8.0368 13.9814 8.0368 14.009 8.0368 14.0275H6.9292V15.0415Z"/>
            <path fill-rule="evenodd" clip-rule="evenodd" d="M24.875 12.875C24.875 19.5024 19.5024 24.875 12.875 24.875C6.24758 24.875 0.875 19.5024 0.875 12.875C0.875 6.24758 6.24758 0.875 12.875 0.875C19.5024 0.875 24.875 6.24758 24.875 12.875ZM12.875 23.5777C18.7859 23.5777 23.5777 18.7859 23.5777 12.875C23.5777 6.96406 18.7859 2.1723 12.875 2.1723C6.96406 2.1723 2.1723 6.96406 2.1723 12.875C2.1723 18.7859 6.96406 23.5777 12.875 23.5777Z"/>
            </svg>




        </defs>
    </svg>